<?xml version="1.0" encoding="UTF-8" standalone="no"?> <svg xmlns="http://www.w3.org/2000/svg" height="30px" width="30px" version="1.1" xmlns:xlink="http://www.w3.org/1999/xlink" viewBox="0 0 30 30"><defs><rect id="path-1" rx="40" height="30" width="30" y="0" x="0"/></defs><g id="Page-1" fill-rule="evenodd" fill="none"><g id="Notifications-Icon" transform="translate(-1441 -95)"><g id="Group-7-Copy-2" transform="translate(1440 95)"><g id="Group-2"><g id="Group-4"><g id="icn_nav_notifications-copy-12" opacity=".60092" transform="translate(1)"><mask id="mask-2" fill="white"><use xlink:href="#path-1"/></mask><use id="Mask" xlink:href="#path-1" fill="#927F64"/></g><g id="noun_10289-copy" fill="#F9F7F3" transform="translate(12.875 15.205) rotate(-6) translate(-12 -9)"><g id="Group" transform="translate(0)"><g transform="translate(7.4118)"><path id="Shape" d="m14.393 10.998v0.071c-0.687-7.3654-4.355-9.2361-6.4345-9.2361-2.0788 0-5.8402 1.9236-6.4695 9.1651 0 0-0.2249 1.186-1.0991 1.21-0.07399 0.028-0.3899 0.105-0.3899 0.498l8.0824e-13 0.996s3.0331 0.963 7.9412 0.963c4.9078 0 7.9408-0.963 7.9408-0.963v-0.996c0-0.343-0.209-0.475-0.389-0.498-0.067-0.008-1.1-0.072-1.1-1.21z"/><ellipse id="Oval" cy="1.2457" cx="7.9412" rx="1.1343" ry="1.1388"/></g><g id="Oval" transform="translate(13.412)"><ellipse cy="1.2457" cx="1.9412" rx="1.1343" ry="1.1388"/></g><path id="Oval-12" d="m14.702 15.585c-0.238 0.909-1.065 1.58-2.049 1.58-1.092 0-1.991-0.827-2.105-1.889 1.13 0.155 2.53 0.284 4.154 0.309z"/></g></g></g></g></g></g></g></svg>