<?xml version="1.0" encoding="UTF-8" standalone="no"?>
<svg width="357px" height="112px" viewBox="0 0 357 112" version="1.1" xmlns="http://www.w3.org/2000/svg" xmlns:xlink="http://www.w3.org/1999/xlink">
  <!-- Generator: Sketch 47.1 (45422) - http://www.bohemiancoding.com/sketch -->
  <title>Page 1</title>
  <desc>Created with Sketch.</desc>
  <defs>
    <polygon id="path-1" points="356.218849 88.5572139 0 88.5572139 0 0.310621218 356.218849 0.310621218"></polygon>
  </defs>
  <g id="Designs" stroke="none" stroke-width="1" fill="none" fill-rule="evenodd">
    <g id="Book-Transparent" transform="translate(-22.000000, -54.000000)">
      <g id="Page-1" transform="translate(22.000000, 54.000000)">
        <g id="Group-3" transform="translate(0.000000, 22.885572)">
          <mask id="mask-2" fill="white">
            <use xlink:href="#path-1"></use>
          </mask>
          <g id="Clip-2"></g>
          <path d="M49.0949886,15.2262417 C49.0949886,15.2262417 104.337371,5.57636206 117.022406,3.22873889 C129.707441,0.92510865 150.488205,-1.07457037 162.653706,2.57684352 C174.819208,6.22825742 178.845164,14.5743463 178.845164,14.5743463 C178.845164,14.5743463 183.910756,4.9244667 195.080438,2.57684352 C206.25012,0.229791687 214.346418,-0.770047825 231.576943,1.92494816 C248.807468,4.57652255 277.164996,11.2268836 307.600658,15.2262417 L309.634976,15.9215587 L312.665681,16.573454 L314.700568,19.2255997 L316.734885,19.9209167 L356.218849,65.5193118 L355.223029,88.5573282 C355.223029,88.5573282 291.711929,77.9070377 274.134291,75.2560347 C256.557221,72.5610387 228.546237,69.0398896 210.276077,72.5610387 C192.049732,76.125038 191.703756,76.8209263 185.945643,81.2545004 C185.945643,81.2545004 178.19589,81.9063958 170.749435,81.2545004 C170.749435,81.2545004 157.242138,72.8215683 139.318523,71.908572 C121.438155,71.0395686 99.4453359,71.6920353 72.4301721,76.5598254 C45.4150083,81.4721797 10.7790949,87.6883248 0.995024876,88.5573282 L-1.8161064e-15,65.6716418 L40.0028709,20.5728121 L44.0293965,16.573454 L49.0949886,15.2262417 Z" id="Fill-1" fill-opacity="0.6" fill="#FFFCFC" mask="url(#mask-2)"></path>
        </g>
        <path d="M178.127713,13.3304428 C178.12164,13.2541226 178.115553,13.177767 178.109453,13.101376 C176.678841,10.8529962 172.127205,4.92911804 162.374431,2.0316863 C150.194004,-1.6432438 129.387745,0.345401484 116.687147,2.68073829 C103.986549,5.01550675 48.6763916,14.6148834 48.6763916,14.6148834 L43.6045846,15.955045 L39.5736888,19.9334723 L34.5018818,20.5825243 L0,88.5572139 C9.79664357,87.6927585 44.9918964,80.4709266 72.0402043,75.6274756 C99.0885121,70.7851613 121.108883,70.0929149 139.011188,71.001133 C156.950961,71.865335 175.113724,83.5752194 178.603898,90.5014708 C178.60492,90.5096501 178.605942,90.5178281 178.606965,90.5260046 C182.089552,82.5870647 191.810485,75.2275208 210.063712,71.691507 C228.36025,68.1543595 256.413117,71.691507 274.015542,74.3216936 C291.619107,76.9955277 356.218905,88.5572139 356.218905,88.5572139 L322.749321,20.7582834 L316.679539,19.4210829 L314.642222,18.7743064 L312.603764,16.143553 L309.568588,15.4536958 L307.531271,14.8069193 C277.051288,10.8389654 248.651934,4.24025798 231.395426,1.56699073 C214.139487,-1.06376273 206.031818,-0.0717742464 194.845661,2.25684787 C183.659505,4.54238933 178.585872,14.159576 178.585872,14.159576 L178.127713,13.3304429 Z" id="Combined-Shape" fill="#FFFCFC"></path>
      </g>
    </g>
  </g>
</svg>
